<?xml version="1.0" encoding="UTF-8" standalone="no"?>
<!-- Created with Inkscape (http://www.inkscape.org/) -->
<svg
   xmlns:svg="http://www.w3.org/2000/svg"
   xmlns="http://www.w3.org/2000/svg"
   version="1.0"
   width="708.66156"
   height="871.61316"
   id="svg5994">
  <defs
     id="defs5996" />
  <g
     transform="translate(-331.91048,317.00188)"
     id="layer1">
    <g
       id="g6014">
      <path
         d="M 914.61789,-20.751372 C 914.61789,-20.751372 912.16963,-20.751372 912.16963,-20.751372 L 907.27293,-28.096336 C 899.92796,-30.544787 892.5828,-28.096336 890.13455,-35.441495 C 885.23784,-37.889751 872.99597,-35.441495 870.54772,-40.338202 C 865.65101,-45.234714 858.30585,-42.786458 855.8576,-45.234714 C 846.06418,-47.683166 841.16747,-55.028129 833.82231,-55.028129 C 828.92561,-59.924837 821.58064,-57.476581 816.68394,-62.373288 C 816.68394,-62.373288 814.23568,-59.924837 814.23568,-59.924837 C 794.64885,-64.821544 775.06202,-64.821544 753.02674,-64.821544 C 750.57848,-64.821544 745.68177,-64.821544 743.23332,-64.821544 C 723.64669,-62.373288 704.05986,-57.476581 684.47303,-55.028129 C 682.02458,-55.028129 679.57632,-55.028129 677.12787,-52.579873 C 655.09278,-40.338202 635.50595,-30.544787 615.91912,-18.302921 C 606.12571,-13.406213 598.78075,-8.5095057 588.98733,-3.6127982 L 588.98733,-309.65672 L 591.43559,-317.00188 L 914.61789,-317.00188 L 914.61789,-20.751372 z "
         style="fill:#2056ad;fill-rule:nonzero;stroke:#2056ad;stroke-width:0.00002448;stroke-linecap:butt;stroke-linejoin:miter;stroke-miterlimit:3.86400008;stroke-dasharray:none"
         id="path4928" />
      <path
         d="M 655.09278,-309.65672 C 672.23116,-304.76002 677.12787,-292.51835 682.02458,-277.82822 C 682.02458,-272.93152 682.02458,-265.58636 684.47303,-258.24139 L 684.47303,-258.24139 C 684.47303,-238.65456 684.47303,-216.61948 677.12787,-197.03265 C 677.12787,-194.5842 677.12787,-192.13594 674.67961,-189.68749 C 674.67961,-187.23923 669.78291,-184.79078 669.78291,-182.34252 C 664.8862,-172.54911 655.09278,-165.20395 642.85092,-165.20395 L 598.78075,-165.20395 L 598.78075,-309.65672 L 655.09278,-309.65672 z "
         style="fill:#ffffff;fill-rule:evenodd;stroke:#2056ad;stroke-width:0.00002448;stroke-linecap:butt;stroke-linejoin:miter;stroke-miterlimit:3.86400008;stroke-dasharray:none"
         id="path4930" />
      <path
         d="M 708.95657,-309.65672 C 713.85327,-277.82822 718.74998,-248.44798 723.64669,-219.06773 C 723.64669,-223.96444 723.64669,-231.3094 726.09494,-238.65456 L 735.88836,-309.65672 L 765.2686,-309.65672 C 767.71686,-277.82822 772.61357,-250.89623 775.06202,-221.51618 L 775.06202,-219.06773 C 779.95873,-248.44798 784.85543,-277.82822 789.75214,-309.65672 C 797.09711,-309.65672 806.89052,-309.65672 814.23568,-309.65672 C 806.89052,-260.68965 799.54556,-211.72277 789.75214,-165.20395 L 762.82015,-165.20395 L 750.57848,-255.79294 L 748.13003,-255.79294 C 743.23332,-228.86115 740.78507,-194.5842 735.88836,-165.20395 C 728.5432,-162.75569 718.74998,-165.20395 708.95657,-165.20395 L 708.95657,-165.20395 L 684.47303,-307.20847 C 684.47303,-307.20847 684.47303,-309.65672 684.47303,-309.65672 L 708.95657,-309.65672 z "
         style="fill:#ffffff;fill-rule:nonzero;stroke:#2056ad;stroke-width:0.00002448;stroke-linecap:butt;stroke-linejoin:miter;stroke-miterlimit:3.86400008;stroke-dasharray:none"
         id="path4932" />
      <path
         d="M 880.34113,-309.65672 C 902.37622,-304.76002 907.27293,-282.72493 909.72138,-265.58636 C 907.27293,-263.1381 907.27293,-260.68965 909.72138,-258.24139 C 909.72138,-236.20611 909.72138,-209.27432 899.92796,-189.68749 C 899.92796,-187.23923 897.47951,-187.23923 897.47951,-184.79078 C 890.13455,-174.99737 880.34113,-165.20395 863.20256,-165.20395 L 824.0289,-165.20395 L 824.0289,-309.65672 L 880.34113,-309.65672 z "
         style="fill:#ffffff;fill-rule:nonzero;stroke:#2056ad;stroke-width:0.00002448;stroke-linecap:butt;stroke-linejoin:miter;stroke-miterlimit:3.86400008;stroke-dasharray:none"
         id="path4934" />
      <path
         d="M 655.09278,-268.03481 C 662.43775,-245.99953 664.8862,-211.72277 645.29937,-197.03265 C 637.95421,-194.5842 630.60925,-197.03265 623.26428,-194.5842 L 623.26428,-277.82822 C 635.50595,-277.82822 650.19608,-280.27648 655.09278,-268.03481 z "
         style="fill:#2056ad;fill-rule:nonzero;stroke:#2056ad;stroke-width:0.00002448;stroke-linecap:butt;stroke-linejoin:miter;stroke-miterlimit:3.86400008;stroke-dasharray:none"
         id="path4936" />
      <path
         d="M 880.34113,-268.03481 C 885.23784,-245.99953 887.6861,-219.06773 875.44443,-201.92935 C 870.54772,-192.13594 858.30585,-197.03265 848.51244,-194.5842 L 848.51244,-277.82822 C 860.7543,-277.82822 875.44443,-280.27648 880.34113,-268.03481 z "
         style="fill:#2056ad;fill-rule:nonzero;stroke:#2056ad;stroke-width:0.00002448;stroke-linecap:butt;stroke-linejoin:miter;stroke-miterlimit:3.86400008;stroke-dasharray:none"
         id="path4938" />
      <path
         d="M 750.57848,-15.854665 C 772.61357,-6.0612499 799.54556,-3.6127982 824.0289,6.1806168 C 838.71902,13.52558 850.96089,20.870739 863.20256,33.11241 C 868.09927,33.11241 872.99597,35.560862 875.44443,38.009118 C 887.6861,47.802533 902.37622,52.69924 914.61789,62.492655 L 914.61789,62.492655 C 914.61789,38.009118 914.61789,11.077324 917.06634,-15.854665 C 917.06634,-18.302921 919.5146,-15.854665 924.4113,-15.854665 C 926.85976,-15.854665 921.96305,-6.0612499 929.30801,-8.5095057 C 931.75646,-3.6127982 939.10143,-3.6127982 943.99813,-1.1645424 C 963.58496,18.422288 978.27509,40.457569 995.41366,60.044204 C 997.86192,64.940911 1002.7586,64.940911 1000.3104,72.28607 C 1000.3104,77.182778 1007.6553,77.182778 1007.6553,82.079485 L 1010.1036,86.976193 L 1024.7937,109.01128 C 1022.3455,111.45973 1019.897,113.90799 1022.3455,118.80469 C 1024.7937,118.80469 1024.7937,118.80469 1027.2422,116.35644 C 1027.2422,121.25315 1027.2422,126.14985 1032.1389,128.59811 C 1032.1389,133.49482 1029.6904,140.83998 1034.5871,140.83998 C 1037.0356,143.28823 1032.1389,143.28823 1034.5871,145.73668 C 1034.5871,148.18494 1037.0356,150.63319 1039.4838,153.08165 C 1039.4838,155.5299 1041.9323,157.97835 1039.4838,160.42661 C 1039.4838,160.42661 1034.5871,162.87506 1039.4838,165.32332 C 1041.9323,167.77177 1037.0356,172.66848 1039.4838,177.56518 C 1037.0356,187.3586 1041.9323,197.15201 1037.0356,204.49698 C 1034.5871,214.29039 1032.1389,224.08381 1027.2422,236.32567 C 1029.6904,236.32567 1027.2422,238.77393 1027.2422,238.77393 C 1027.2422,246.11889 1027.2422,255.91231 1027.2422,263.25747 C 1022.3455,277.94759 1012.552,290.18926 1015.0003,307.32783 C 1012.552,317.12125 1007.6553,324.46621 1005.2071,334.25963 C 997.86192,341.60459 992.96521,348.94975 990.51695,358.74317 C 983.17179,370.98484 975.82683,380.77825 975.82683,395.46837 C 966.03342,412.60695 956.24,432.19358 941.54988,446.8837 C 931.75646,451.78041 924.4113,459.12557 917.06634,464.02228 C 917.06634,466.47053 917.06634,466.47053 914.61789,466.47053 C 914.61789,461.57383 914.61789,456.67712 914.61789,454.22886 C 912.16963,454.22886 912.16963,451.78041 914.61789,451.78041 C 912.16963,449.33216 914.61789,444.43545 914.61789,441.987 C 914.61789,437.09029 914.61789,429.74533 914.61789,424.84862 L 914.61789,424.84862 C 912.16963,424.84862 914.61789,419.95191 912.16963,419.95191 C 902.37622,427.29707 897.47951,441.987 885.23784,446.8837 C 850.96089,461.57383 819.13239,478.7124 777.51028,478.7124 C 772.61357,483.60911 765.2686,488.50582 755.47519,488.50582 C 748.13003,488.50582 738.33662,488.50582 733.43991,493.40252 C 716.30153,495.85078 699.16315,500.74749 679.57632,503.19594 C 677.12787,503.19594 674.67961,503.19594 674.67961,505.64419 C 674.67961,505.64419 674.67961,508.09265 677.12787,510.5409 C 677.12787,512.98935 674.67961,512.98935 672.23116,515.43761 C 657.54104,510.5409 652.64433,493.40252 635.50595,498.29923 C 625.71254,500.74749 633.0575,488.50582 625.71254,490.95407 L 588.98733,490.95407 C 588.98733,490.95407 588.98733,490.95407 586.53888,490.95407 C 586.53888,490.95407 586.53888,490.95407 586.53888,490.95407 L 586.53888,358.74317 C 586.53888,358.74317 586.53888,356.29471 588.98733,356.29471 C 593.88404,363.63987 606.12571,363.63987 615.91912,368.53658 C 630.60925,370.98484 645.29937,378.33 664.8862,375.88154 C 667.33445,375.88154 672.23116,383.2267 677.12787,378.33 C 679.57632,380.77825 684.47303,375.88154 686.92128,380.77825 C 686.92128,383.2267 691.81799,380.77825 694.26644,383.2267 C 708.95657,378.33 726.09494,373.43329 743.23332,373.43329 C 750.57848,368.53658 757.92345,363.63987 767.71686,361.19142 C 784.85543,356.29471 801.99381,348.94975 811.78723,334.25963 C 826.47735,317.12125 846.06418,302.43113 858.30585,280.39585 C 868.09927,263.25747 875.44443,241.22219 875.44443,219.1871 C 875.44443,214.29039 875.44443,214.29039 875.44443,209.39368 C 875.44443,180.01344 860.7543,155.5299 846.06418,133.49482 C 826.47735,111.45973 804.44226,89.424449 772.61357,86.976193 C 762.82015,86.976193 755.47519,86.976193 743.23332,86.976193 C 740.78507,86.976193 743.23332,94.321156 738.33662,91.8729 C 730.99165,89.424449 726.09494,96.769608 718.74998,94.321156 C 706.50811,99.217864 694.26644,106.56302 682.02458,111.45973 C 677.12787,126.14985 657.54104,128.59811 655.09278,145.73668 C 647.74762,155.5299 642.85092,165.32332 640.40266,177.56518 C 640.40266,192.25531 637.95421,206.94543 645.29937,216.73884 C 652.64433,228.98051 662.43775,241.22219 677.12787,246.11889 C 691.81799,246.11889 708.95657,248.56734 718.74998,241.22219 C 730.99165,236.32567 743.23332,228.98051 750.57848,219.1871 C 753.02674,209.39368 748.13003,202.04872 743.23332,194.70356 C 743.23332,192.25531 743.23332,189.80685 740.78507,189.80685 C 733.43991,189.80685 726.09494,189.80685 721.19824,182.46189 L 721.19824,182.46189 L 721.19824,182.46189 C 721.19824,175.11673 723.64669,167.77177 728.5432,165.32332 C 735.88836,160.42661 740.78507,155.5299 750.57848,157.97835 C 753.02674,155.5299 755.47519,160.42661 760.3719,157.97835 C 784.85543,157.97835 797.09711,182.46189 804.44226,202.04872 C 809.33897,216.73884 816.68394,233.87722 811.78723,251.0156 C 804.44226,270.60243 799.54556,290.18926 784.85543,304.87938 C 760.3719,322.01796 733.43991,331.81137 706.50811,339.15634 C 682.02458,341.60459 657.54104,341.60459 637.95421,334.25963 C 620.81583,326.91466 603.67745,319.56951 588.98733,307.32783 L 586.53888,307.32783 C 586.53888,322.01796 586.53888,336.70788 586.53888,348.94975 C 566.95205,341.60459 544.91696,326.91466 542.46851,302.43113 C 540.02026,299.98268 535.12355,302.43113 535.12355,299.98268 C 535.12355,299.98268 535.12355,295.08597 532.67529,295.08597 C 527.77858,292.63771 527.77858,285.29255 520.43343,285.29255 C 517.98517,282.8443 520.43343,280.39585 520.43343,277.94759 C 510.64001,258.36076 498.39834,238.77393 488.60492,219.1871 C 488.60492,216.73884 488.60492,214.29039 488.60492,209.39368 C 488.60492,204.49698 486.15647,189.80685 493.50163,184.91015 C 498.39834,184.91015 498.39834,189.80685 500.8466,192.25531 C 505.7433,194.70356 513.08846,197.15201 517.98517,194.70356 C 517.98517,189.80685 513.08846,187.3586 510.64001,184.91015 C 508.19175,182.46189 505.7433,175.11673 500.8466,177.56518 C 493.50163,180.01344 493.50163,170.22002 486.15647,175.11673 C 486.15647,175.11673 486.15647,175.11673 486.15647,175.11673 C 483.70822,145.73668 495.94989,123.7014 503.29505,101.66632 C 515.53672,69.837619 535.12355,42.905825 557.15863,20.870739 C 564.50379,18.422288 569.4005,13.52558 571.84876,8.6288727 C 576.74546,3.7321652 581.64217,1.2839093 586.53888,1.2839093 L 588.98733,1.2839093 L 588.98733,42.905825 C 591.43559,45.354277 596.33229,42.905825 598.78075,40.457569 C 611.02242,33.11241 623.26428,25.767447 635.50595,18.422288 C 640.40266,13.52558 645.29937,11.077324 650.19608,8.6288727 C 664.8862,-1.1645424 686.92128,-3.6127982 704.05986,-10.957957 C 713.85327,-13.406213 726.09494,-15.854665 733.43991,-18.302921 C 740.78507,-20.751372 743.23332,-13.406213 750.57848,-15.854665 z "
         style="fill:#2056ad;fill-rule:evenodd;stroke:#2056ad;stroke-width:0.00002448;stroke-linecap:butt;stroke-linejoin:miter;stroke-miterlimit:3.86400008;stroke-dasharray:none"
         id="path4940" />
      <path
         d="M 586.53888,304.87938 C 584.09062,304.87938 581.64217,302.43113 581.64217,302.43113 C 552.26193,277.94759 535.12355,246.11889 525.33013,214.29039 C 517.98517,204.49698 520.43343,187.3586 520.43343,175.11673 C 522.88188,153.08165 532.67529,135.94327 540.02026,116.35644 C 540.02026,113.90799 537.5718,111.45973 542.46851,111.45973 L 542.46851,111.45973 C 554.71038,89.424449 569.4005,69.837619 586.53888,52.69924 L 586.53888,304.87938 z "
         style="fill:#ffffff;fill-rule:nonzero;stroke:#2056ad;stroke-width:0.00002448;stroke-linecap:butt;stroke-linejoin:miter;stroke-miterlimit:3.86400008;stroke-dasharray:none"
         id="path4942" />
      <path
         d="M 921.96305,72.28607 C 946.44659,99.217864 963.58496,131.04656 973.37838,167.77177 C 970.93012,177.56518 973.37838,192.25531 975.82683,202.04872 C 975.82683,231.42897 978.27509,260.80902 975.82683,282.8443 C 966.03342,326.91466 948.89484,363.63987 926.85976,400.36508 C 921.96305,402.81353 919.5146,407.71024 917.06634,412.60695 L 914.61789,67.389363 C 917.06634,67.389363 919.5146,69.837619 921.96305,72.28607 z "
         style="fill:#ffffff;fill-rule:nonzero;stroke:#2056ad;stroke-width:0.00002448;stroke-linecap:butt;stroke-linejoin:miter;stroke-miterlimit:3.86400008;stroke-dasharray:none"
         id="path4944" />
      <path
         d="M 410.2576,118.80469 C 407.80935,126.14985 415.15431,128.59811 412.70606,133.49482 C 407.80935,135.94327 402.91264,135.94327 400.46419,140.83998 C 402.91264,145.73668 390.67077,150.63319 400.46419,153.08165 C 400.46419,155.5299 398.01593,157.97835 398.01593,160.42661 C 395.56748,160.42661 393.11923,157.97835 393.11923,160.42661 C 385.77407,165.32332 388.22252,177.56518 385.77407,184.91015 C 388.22252,189.80685 393.11923,182.46189 393.11923,189.80685 C 395.56748,194.70356 393.11923,202.04872 390.67077,206.94543 C 388.22252,216.73884 388.22252,231.42897 390.67077,243.67064 C 390.67077,243.67064 393.11923,243.67064 393.11923,246.11889 C 398.01593,277.94759 407.80935,307.32783 417.60276,339.15634 C 420.05102,346.5013 424.94773,353.84646 432.29289,356.29471 C 432.29289,373.43329 442.0863,388.12341 454.32797,395.46837 C 459.22468,402.81353 456.77623,412.60695 461.67294,417.50366 C 469.01809,429.74533 481.25977,441.987 493.50163,449.33216 C 500.8466,454.22886 495.94989,461.57383 495.94989,468.91899 C 495.94989,473.81569 488.60492,471.36724 486.15647,476.26395 C 469.01809,476.26395 456.77623,471.36724 449.43126,464.02228 C 439.63785,454.22886 424.94773,449.33216 417.60276,437.09029 C 402.91264,412.60695 378.4291,395.46837 366.18724,368.53658 C 356.39382,356.29471 349.04886,341.60459 344.15215,326.91466 C 339.25544,312.22454 334.35874,297.53442 331.91048,280.39585 C 331.91048,275.49914 331.91048,270.60243 331.91048,268.15417 C 331.91048,260.80902 331.91048,251.0156 331.91048,241.22219 C 331.91048,228.98051 336.80719,221.63555 341.7039,211.84214 C 346.6006,209.39368 344.15215,202.04872 349.04886,199.60027 C 353.94557,189.80685 363.73898,187.3586 366.18724,177.56518 C 368.63569,175.11673 366.18724,167.77177 371.08394,167.77177 C 378.4291,167.77177 375.98065,157.97835 378.4291,155.5299 C 385.77407,140.83998 398.01593,133.49482 405.3609,118.80469 C 405.3609,118.80469 410.2576,116.35644 410.2576,118.80469 z "
         style="fill:#2056ad;fill-rule:nonzero;stroke:#2056ad;stroke-width:0.00002448;stroke-linecap:butt;stroke-linejoin:miter;stroke-miterlimit:3.86400008;stroke-dasharray:none"
         id="path4946" />
      <path
         d="M 914.61789,554.61127 L 586.53888,554.61127 C 584.09062,539.92115 584.09062,530.12773 586.53888,515.43761 C 588.98733,512.98935 593.88404,515.43761 598.78075,517.88606 C 601.229,520.33432 608.57416,520.33432 611.02242,522.78277 C 620.81583,522.78277 625.71254,530.12773 635.50595,527.67928 C 647.74762,525.23102 657.54104,517.88606 672.23116,515.43761 C 674.67961,515.43761 677.12787,515.43761 679.57632,517.88606 C 679.57632,527.67928 689.36974,525.23102 696.7147,527.67928 C 711.40482,535.02444 733.43991,532.57599 750.57848,532.57599 C 767.71686,530.12773 782.40698,525.23102 797.09711,520.33432 C 819.13239,512.98935 838.71902,508.09265 860.7543,500.74749 C 868.09927,493.40252 880.34113,490.95407 887.6861,486.05736 C 892.5828,478.7124 897.47951,473.81569 904.82467,471.36724 C 907.27293,471.36724 912.16963,464.02228 914.61789,464.02228 L 914.61789,554.61127 z "
         style="fill:#2056ad;fill-rule:nonzero;stroke:#2056ad;stroke-width:0.00002448;stroke-linecap:butt;stroke-linejoin:miter;stroke-miterlimit:3.86400008;stroke-dasharray:none"
         id="path4948" />
      <path
         d="M 515.53672,471.36724 C 517.98517,473.81569 520.43343,471.36724 522.88188,473.81569 C 535.12355,471.36724 552.26193,471.36724 557.15863,486.05736 C 559.60709,488.50582 557.15863,495.85078 562.05534,498.29923 C 569.4005,498.29923 576.74546,490.95407 586.53888,493.40252 C 586.53888,500.74749 586.53888,508.09265 584.09062,512.98935 C 579.19392,510.5409 574.29721,510.5409 569.4005,505.64419 C 564.50379,505.64419 562.05534,510.5409 557.15863,510.5409 C 547.36522,510.5409 532.67529,512.98935 522.88188,508.09265 C 513.08846,500.74749 503.29505,495.85078 495.94989,488.50582 C 495.94989,481.16066 500.8466,478.7124 503.29505,473.81569 C 508.19175,471.36724 510.64001,471.36724 515.53672,471.36724 z "
         style="fill:#2056ad;fill-rule:nonzero;stroke:#2056ad;stroke-width:0.00002448;stroke-linecap:butt;stroke-linejoin:miter;stroke-miterlimit:3.86400008;stroke-dasharray:none"
         id="path4950" />
    </g>
  </g>
</svg>
